<svg fill="#ffffff" xmlns="http://www.w3.org/2000/svg" width="128" height="128" viewBox="0 0 128 128">
  <title>Email</title>
  <path d="M114,15.25H14A9.761,9.761,0,0,0,4.25,25v77A10.762,10.762,0,0,0,15,112.75h98A10.762,10.762,0,0,0,123.75,102V25A9.761,9.761,0,0,0,114,15.25ZM120.25,25V36.683H52.888L61.37,18.75H114A6.257,6.257,0,0,1,120.25,25ZM14,18.75H57.5L49.016,36.683H7.75V25A6.257,6.257,0,0,1,14,18.75Zm99,90.5H15A7.258,7.258,0,0,1,7.75,102V40.183h112.5V102A7.258,7.258,0,0,1,113,109.25Z"/>
  <path d="M21.57,33.466a5.75,5.75,0,1,0-5.75-5.75A5.756,5.756,0,0,0,21.57,33.466Zm0-8a2.25,2.25,0,1,1-2.25,2.25A2.253,2.253,0,0,1,21.57,25.466Z"/>
  <path d="M37.626,33.466a5.75,5.75,0,1,0-5.75-5.75A5.756,5.756,0,0,0,37.626,33.466Zm0-8a2.25,2.25,0,1,1-2.25,2.25A2.253,2.253,0,0,1,37.626,25.466Z"/>
  <path d="M67.522,29.466h44.745a1.75,1.75,0,0,0,0-3.5H67.522a1.75,1.75,0,0,0,0,3.5Z"/>
  <path d="M107.926,52.966h-50a1.751,1.751,0,0,0-1.75,1.75v40a1.75,1.75,0,0,0,1.75,1.75h50a1.749,1.749,0,0,0,1.75-1.75v-40A1.75,1.75,0,0,0,107.926,52.966Zm-1.75,3.5v7.572L82.926,75.224,59.676,64.038V56.466Zm-46.5,36.5V67.923l22.491,10.82a1.751,1.751,0,0,0,1.518,0l22.491-10.82V92.967Z"/>
  <path d="M45.9,59.966H17.733a1.75,1.75,0,1,0,0,3.5H45.9a1.75,1.75,0,0,0,0-3.5Z"/>
  <path d="M45.9,72.967H22.733a1.75,1.75,0,0,0,0,3.5H45.9a1.75,1.75,0,1,0,0-3.5Z"/>
  <path d="M45.9,85.967H27.733a1.75,1.75,0,0,0,0,3.5H45.9a1.75,1.75,0,1,0,0-3.5Z"/>
</svg>
