<svg fill="#ffffff" xmlns="http://www.w3.org/2000/svg" width="128" height="128" viewBox="0 0 128 128">
  <title>Idea</title>
  <path d="M15,112.75h98A10.762,10.762,0,0,0,123.75,102V25A9.761,9.761,0,0,0,114,15.25H14A9.761,9.761,0,0,0,4.25,25v77A10.762,10.762,0,0,0,15,112.75Zm98-3.5H15A7.258,7.258,0,0,1,7.75,102V40.183h112.5V102A7.258,7.258,0,0,1,113,109.25ZM120.25,25V36.683H52.888L61.37,18.75H114A6.257,6.257,0,0,1,120.25,25ZM14,18.75H57.5L49.016,36.683H7.75V25A6.257,6.257,0,0,1,14,18.75Z"/>
  <path d="M21.57,33.466a5.75,5.75,0,1,0-5.75-5.75A5.756,5.756,0,0,0,21.57,33.466Zm0-8a2.25,2.25,0,1,1-2.25,2.25A2.253,2.253,0,0,1,21.57,25.466Z"/>
  <path d="M37.626,33.466a5.75,5.75,0,1,0-5.75-5.75A5.756,5.756,0,0,0,37.626,33.466Zm0-8a2.25,2.25,0,1,1-2.25,2.25A2.253,2.253,0,0,1,37.626,25.466Z"/>
  <path d="M67.522,29.466h44.745a1.75,1.75,0,0,0,0-3.5H67.522a1.75,1.75,0,0,0,0,3.5Z"/>
  <path d="M64,56.654a17.646,17.646,0,0,0-8.75,32.979v3.442H55a1.75,1.75,0,1,0,0,3.5h.288a8.744,8.744,0,0,0,17.424,0H73a1.75,1.75,0,0,0,0-3.5h-.25V89.633A17.646,17.646,0,0,0,64,56.654Zm0,44.421a5.242,5.242,0,0,1-5.174-4.5H69.174A5.242,5.242,0,0,1,64,101.075Zm6.229-14.066a1.751,1.751,0,0,0-.979,1.571v4.5h-3.5V75.885h3.484a1.75,1.75,0,0,0,0-3.5H58.766a1.75,1.75,0,0,0,0,3.5H62.25v17.19h-3.5v-4.5a1.751,1.751,0,0,0-.979-1.571,14.161,14.161,0,1,1,12.458,0Z"/>
  <path d="M64,54.154a1.75,1.75,0,0,0,1.75-1.75V47.015a1.75,1.75,0,0,0-3.5,0V52.4A1.75,1.75,0,0,0,64,54.154Z"/>
  <path d="M37.626,76.05H32.237a1.75,1.75,0,0,0,0,3.5h5.389a1.75,1.75,0,0,0,0-3.5Z"/>
  <path d="M95.763,76.05H90.374a1.75,1.75,0,0,0,0,3.5h5.389a1.75,1.75,0,0,0,0-3.5Z"/>
  <path d="M42.576,59.249l-4.352-3.178A1.75,1.75,0,0,0,36.159,58.9l4.353,3.178a1.75,1.75,0,0,0,2.064-2.827Z"/>
  <path d="M92.221,56.452a1.751,1.751,0,0,0-2.446-.381l-4.351,3.178a1.75,1.75,0,1,0,2.064,2.826L91.84,58.9A1.75,1.75,0,0,0,92.221,56.452Z"/>
</svg>
